<svg xmlns="http://www.w3.org/2000/svg" version="1.1" xmlns:xlink="http://www.w3.org/1999/xlink" xmlns:svgjs="http://svgjs.dev/svgjs" width="1440" height="560" preserveAspectRatio="none" viewBox="0 0 1440 560"><g mask="url(&quot;#SvgjsMask1008&quot;)" fill="none"><path d="M0 20.92C6.74 0.2 21.25 3.62 45.5 0C91.25 -6.84 92.75 0 140 0C210 0 210 0 280 0C350 0 350 0 420 0C469 0 477.17 -16.33 518 0C547.17 11.67 539.39 27.71 560 56C590.39 97.71 581.5 109.45 620 140C651.5 165 663.6 167.1 700 167.1C715.6 167.1 724 156.79 724 140C724 83.24 722.19 72.66 700 20C692.69 2.66 665 5.35 665 0C665 -4.65 682.5 0 700 0C770 0 770 0 840 0C910 0 910 0 980 0C1050 0 1050 0 1120 0C1190 0 1190 0 1260 0C1330 0 1330 0 1400 0C1420 0 1429.41 -14.49 1440 0C1480.57 55.51 1462.6 79.42 1502.31 140C1512.6 155.7 1535.52 135.92 1540 152.56C1554.37 205.92 1540 216.28 1540 280C1540 350 1540 350 1540 420C1540 490 1575 525 1540 560C1505 595 1470 560 1400 560C1330 560 1330 560 1260 560C1190 560 1190 560 1120 560C1050 560 1050 560 980 560C918.49 560 856.97 579.44 856.97 560C856.97 536.25 923.21 521.79 980 473.62C1005.73 451.79 1022 450.12 1022 420C1022 366.04 1017.24 307.01 980 305.45C926.24 303.19 916.87 393.02 840 412.36C776.87 428.24 764.17 373.21 700 375.89C672.7 377.03 657.07 397.64 657.07 420C657.07 443.03 675.53 446.72 700 466.67C761.39 516.72 828.8 534.21 828.8 560C828.8 580.88 764.4 560 700 560C642.5 560 639.14 568.73 585 560C569.14 557.44 571.4 537.42 560 537.42C550.46 537.42 556.17 557.9 543.13 560C486.17 569.19 481.57 560 420 560C350 560 350 560 280 560C210 560 210 560 140 560C70 560 37.5 592.5 0 560C-32.5 531.83 -20.57 483.93 0 438.67C11.25 413.93 63.64 434.19 63.64 420C63.64 403.64 13.98 408.34 0 377.58C-17.84 338.34 0 328.79 0 280C0 210 0 210 0 140C0 80.46 -16.01 70.2 0 20.92" stroke="rgba(166, 147, 15, 1)" stroke-width="2"></path><path d="M1120 120C1109.51 120 1106.17 130.35 1106.17 140C1106.17 148.46 1110.41 156.23 1120 156.23C1152.32 156.23 1190 149 1190 140C1190 130.88 1151.42 120 1120 120" stroke="rgba(166, 147, 15, 1)" stroke-width="2"></path><path d="M420 223.46C395.72 223.46 385.41 252.3 385.41 280C385.41 305.07 396.72 329 420 329C461.43 329 514.84 305.94 514.84 280C514.84 253.17 460.44 223.46 420 223.46" stroke="rgba(44, 164, 106, 1)" stroke-width="2"></path><path d="M280 417.85C274.81 417.85 269.23 418.28 269.23 420C269.23 421.86 275.29 425 280 425C282.42 425 283.5 422.14 283.5 420C283.5 418.56 281.94 417.85 280 417.85" stroke="rgba(44, 164, 106, 1)" stroke-width="2"></path><path d="M1260 415C1258.62 415 1256.74 417.1 1256.74 420C1256.74 437.1 1258.68 455 1260 455C1261.31 455 1262 437.34 1262 420C1262 417.34 1261.25 415 1260 415" stroke="rgba(51, 121, 194, 0.58)" stroke-width="2"></path><path d="M0 61.15C34.32 61.15 108.89 93.36 108.89 140C108.89 200.04 30.63 274.51 0 274.51C-23.81 274.51 0 207.25 0 140C0 100.57 -20.13 61.15 0 61.15" stroke="rgba(44, 164, 106, 1)" stroke-width="2"></path><path d="M140 17.5C137.4 8.45 133 6.38 133 0C133 -2.37 136.5 0 140 0C210 0 210 0 280 0C311.5 0 318.75 -15.69 343 0C388.75 29.61 382.24 44.69 420 90.59C439.83 114.69 458.18 120.3 458.18 140C458.18 153.08 432.65 140.6 420 156.15C375.68 210.6 384.74 219.87 344.24 280C314.74 323.8 317.45 364 280 364C231.8 364 199.26 335.2 172.94 280C145.87 223.2 181.86 208.84 173.22 140C165.39 77.59 157.51 78.45 140 17.5" stroke="rgba(166, 147, 15, 1)" stroke-width="2"></path><path d="M774 140C792.67 77.77 745.37 46.05 767.08 0C778.37 -23.95 803.54 0 840 0C910 0 910 0 980 0C1050 0 1050 0 1120 0C1155 0 1190 -12.53 1190 0C1190 16.22 1150.14 24.28 1120 57.5C1086.62 94.28 1062.96 100.19 1062.96 140C1062.96 174.92 1083.83 183.97 1120 206.96C1182.35 246.6 1193.59 273.48 1260 265.26C1333.59 256.15 1324.18 190.68 1400 172.31C1464.18 156.77 1495.71 163.37 1540 197.44C1565.71 217.22 1540 238.72 1540 280C1540 350 1540 350 1540 420C1540 457.69 1549.38 460.2 1540 495.38C1530.71 530.2 1532.13 546.4 1502.67 560C1462.13 578.71 1451.34 560 1400 560C1358 560 1332.5 586.24 1316 560C1288.5 516.24 1326 487.51 1312 420C1298 352.51 1292.41 290 1260 290C1224.09 290 1190.8 349.59 1175.35 420C1161.18 484.59 1218.42 515.35 1200.77 560C1190.75 585.35 1160.39 560 1120 560C1050 560 1050 560 980 560C971.51 560 963.03 562.68 963.03 560C963.03 556.73 973.37 556 980 548.09C1032.02 486 1066.84 490.14 1080.33 420C1092.63 356.09 1066.15 342.91 1031.58 280C1015.98 251.61 1006.67 237.39 980 237.39C950.26 237.39 947.91 256.81 918.75 280C877.91 312.48 886.46 338.55 840 348.73C777.09 362.52 766.72 348.11 700 327.95C652.97 313.74 612.5 305.54 612.5 280C612.5 253.34 661.02 257.34 700 223.55C741.77 187.34 759.13 189.55 774 140" stroke="rgba(51, 121, 194, 0.58)" stroke-width="2"></path><path d="M371 420C389.95 397.98 393.52 399.94 420 387.33C488.02 354.94 503.4 320.29 560 330C598.6 336.62 610.4 377.28 610.4 420C610.4 452.76 584.35 449.82 560 480.97C529.63 519.82 539.41 538.3 500.96 560C469.41 577.81 460.48 560 420 560C350 560 350 560 280 560C210 560 210 560 140 560C70 560 45.65 584.35 0 560C-24.35 547.01 -23.98 492.9 0 485.33C46.02 470.8 70.21 499.67 140 515.79C210.21 532 225.03 572.8 280 550C340.53 524.9 319.95 479.32 371 420" stroke="rgba(51, 121, 194, 0.58)" stroke-width="2"></path><path d="M647.5 560C647.5 548.01 673.17 517.39 700 517.39C728.82 517.39 758.8 548.23 758.8 560C758.8 569.53 729.4 560 700 560C673.75 560 647.5 569.31 647.5 560" stroke="rgba(44, 164, 106, 1)" stroke-width="2"></path><path d="M0 101.38C16.81 101.38 53.33 117.16 53.33 140C53.33 169.41 15 205.88 0 205.88C-11.66 205.88 0 172.94 0 140C0 120.69 -9.86 101.38 0 101.38" stroke="rgba(44, 164, 106, 1)" stroke-width="2"></path><path d="M232.54 140C240.11 97.12 252.42 62.22 280 62.22C312.04 62.22 346.99 94.64 351.79 140C358.52 203.53 331.64 212.27 303.06 280C295.74 297.34 293.44 310.15 280 310.15C262.7 310.15 247.7 301.97 241.57 280C223.97 216.9 220.89 206.01 232.54 140" stroke="rgba(44, 164, 106, 1)" stroke-width="2"></path><path d="M824 140C854.08 79.84 802.28 20.49 840 0C880.28 -21.88 924.59 12.1 980 55.26C1014.46 82.1 1019.75 100.3 1019.75 140C1019.75 166 1003.72 167.58 980 186.67C916.76 237.58 912.67 233.01 845.83 280C842.67 282.22 843.82 285.09 840 285.09C770.9 285.09 703.43 311.07 700 280C695.43 238.52 784.08 219.84 824 140" stroke="rgba(166, 147, 15, 1)" stroke-width="2"></path><path d="M1092.98 280C1092.98 264.97 1105.19 257.68 1120 257.68C1141.34 257.68 1165.29 261.79 1165.29 280C1165.29 313.48 1138.83 361.05 1120 361.05C1102.67 361.05 1092.98 316.65 1092.98 280" stroke="rgba(44, 164, 106, 1)" stroke-width="2"></path><path d="M1426.92 280C1479.43 254.92 1497.04 242.31 1540 242.31C1553.58 242.31 1540 261.15 1540 280C1540 325.94 1554.53 332.24 1540 371.88C1528.87 402.24 1506.73 390.48 1488.67 420C1449.18 484.54 1463.05 499.75 1424.89 560C1418.72 569.75 1412.45 560 1400 560C1389.82 560 1382.04 568.83 1379.64 560C1363.04 498.83 1356.44 488.52 1362 420C1366.62 363.11 1375.75 361.46 1400 309.17C1408.21 291.46 1409.43 288.35 1426.92 280" stroke="rgba(51, 121, 194, 0.58)" stroke-width="2"></path><path d="M538.46 420C538.46 417.17 550.56 413.33 560 413.33C563.2 413.33 563.73 416.83 563.73 420C563.73 422.43 562.66 424.52 560 424.52C550.02 424.52 538.46 422.76 538.46 420" stroke="rgba(44, 164, 106, 1)" stroke-width="2"></path><path d="M0 532C21.86 532 61.76 552.67 61.76 560C61.76 566.67 21.25 569.63 0 560C-9.63 555.63 -9.02 532 0 532" stroke="rgba(44, 164, 106, 1)" stroke-width="2"></path><path d="M350 560C350 530.3 390.89 465.29 420 465.29C445.29 465.29 458.8 525.66 458.8 560C458.8 573.02 439.4 560 420 560C385 560 350 577.65 350 560" stroke="rgba(44, 164, 106, 1)" stroke-width="2"></path><path d="M1093.08 560C1093.08 541.39 1109.5 506.15 1120 506.15C1129.69 506.15 1133.46 538.33 1133.46 560C1133.46 565.25 1126.73 560 1120 560C1106.54 560 1093.08 568.32 1093.08 560" stroke="rgba(44, 164, 106, 1)" stroke-width="2"></path></g><defs><mask id="SvgjsMask1008"><rect width="1440" height="560" fill="#ffffff"></rect></mask></defs></svg>