<svg xmlns="http://www.w3.org/2000/svg" version="1.1" xmlns:xlink="http://www.w3.org/1999/xlink" xmlns:svgjs="http://svgjs.dev/svgjs" width="1440" height="560" preserveAspectRatio="none" viewBox="0 0 1440 560"><g mask="url(&quot;#SvgjsMask1013&quot;)" fill="none"><rect width="72.4" height="72.4" clip-path="url(&quot;#SvgjsClipPath1014&quot;)" x="590.06" y="157.3" fill="url(&quot;#SvgjsPattern1015&quot;)" transform="rotate(260.23, 626.26, 193.5)"></rect><path d="M467.86 518.4a5.6 5.6 0 1 0 9.48 5.96 5.6 5.6 0 1 0-9.48-5.96zM481.41 526.92a5.6 5.6 0 1 0 9.48 5.96 5.6 5.6 0 1 0-9.48-5.96zM494.95 535.44a5.6 5.6 0 1 0 9.48 5.96 5.6 5.6 0 1 0-9.48-5.96zM508.49 543.96a5.6 5.6 0 1 0 9.49 5.96 5.6 5.6 0 1 0-9.49-5.96zM432.26 514.9a5.6 5.6 0 1 0 9.48 5.97 5.6 5.6 0 1 0-9.48-5.97zM445.8 523.42a5.6 5.6 0 1 0 9.48 5.97 5.6 5.6 0 1 0-9.48-5.97zM459.35 531.94a5.6 5.6 0 1 0 9.48 5.97 5.6 5.6 0 1 0-9.48-5.97zM472.89 540.46a5.6 5.6 0 1 0 9.48 5.96 5.6 5.6 0 1 0-9.48-5.96z" fill="#d3b714"></path><rect width="126.2" height="126.2" clip-path="url(&quot;#SvgjsClipPath1016&quot;)" x="151.5" y="169.19" fill="url(&quot;#SvgjsPattern1017&quot;)" transform="rotate(168.82, 214.6, 232.29)"></rect><rect width="348" height="348" clip-path="url(&quot;#SvgjsClipPath1018&quot;)" x="697.18" y="170.55" fill="url(&quot;#SvgjsPattern1019&quot;)" transform="rotate(18.35, 871.18, 344.55)"></rect><path d="M945.75 164.25 L844.21 220.45999999999998L951.5012498596388 248.8762498596388z" stroke="#d3b714" stroke-width="1.65" stroke-dasharray="4, 4"></path><path d="M1408.89 231.64L1419.58 238.69 1415.04 250.67 1425.73 257.72 1421.2 269.7 1431.88 276.75 1427.35 288.73" stroke="#037b0b" stroke-width="2.3" stroke-dasharray="3, 2"></path><path d="M946.3 437.89a5.6 5.6 0 1 0-6-9.45 5.6 5.6 0 1 0 6 9.45zM937.73 424.38a5.6 5.6 0 1 0-6-9.46 5.6 5.6 0 1 0 6 9.46zM929.16 410.87a5.6 5.6 0 1 0-6-9.46 5.6 5.6 0 1 0 6 9.46zM920.59 397.36a5.6 5.6 0 1 0-6-9.46 5.6 5.6 0 1 0 6 9.46zM976.94 456.35a5.6 5.6 0 1 0-5.99-9.46 5.6 5.6 0 1 0 5.99 9.46zM968.38 442.84a5.6 5.6 0 1 0-6-9.46 5.6 5.6 0 1 0 6 9.46zM959.81 429.33a5.6 5.6 0 1 0-6-9.46 5.6 5.6 0 1 0 6 9.46zM951.24 415.81a5.6 5.6 0 1 0-6-9.46 5.6 5.6 0 1 0 6 9.46zM1007.59 474.81a5.6 5.6 0 1 0-5.99-9.46 5.6 5.6 0 1 0 5.99 9.46zM999.03 461.29a5.6 5.6 0 1 0-6-9.46 5.6 5.6 0 1 0 6 9.46zM990.46 447.78a5.6 5.6 0 1 0-6-9.46 5.6 5.6 0 1 0 6 9.46zM981.89 434.27a5.6 5.6 0 1 0-6-9.46 5.6 5.6 0 1 0 6 9.46z" stroke="#d3b714" stroke-width="1.44"></path><rect width="110.64" height="110.64" clip-path="url(&quot;#SvgjsClipPath1020&quot;)" x="1273.64" y="481.67" fill="url(&quot;#SvgjsPattern1021&quot;)" transform="rotate(289.11, 1328.96, 536.99)"></rect><circle r="64.89118243274484" cx="44.41" cy="414.45" stroke="#037b0b" stroke-width="1.61"></circle><rect width="168" height="168" clip-path="url(&quot;#SvgjsClipPath1022&quot;)" x="213.96" y="93.28" fill="url(&quot;#SvgjsPattern1023&quot;)" transform="rotate(257.42, 297.96, 177.28)"></rect><rect width="216" height="216" clip-path="url(&quot;#SvgjsClipPath1024&quot;)" x="1120.5" y="235.02" fill="url(&quot;#SvgjsPattern1025&quot;)" transform="rotate(292.24, 1228.5, 343.02)"></rect><path d="M1209.33 428.77L1213.96 440.72 1203.32 447.85 1207.95 459.79 1197.31 466.92 1201.94 478.87 1191.3 486" stroke="#d3b714" stroke-width="2.73" stroke-dasharray="3, 3"></path></g><defs><mask id="SvgjsMask1013"><rect width="1440" height="560" fill="#ffffff"></rect></mask><pattern x="0" y="0" width="72.4" height="7.24" patternUnits="userSpaceOnUse" id="SvgjsPattern1015"><rect width="72.4" height="3.62" x="0" y="0" fill="#d3b714"></rect><rect width="72.4" height="3.62" x="0" y="3.62" fill="rgba(0, 0, 0, 0)"></rect></pattern><clipPath id="SvgjsClipPath1014"><circle r="18.1" cx="626.26" cy="193.5"></circle></clipPath><pattern x="0" y="0" width="126.2" height="12.62" patternUnits="userSpaceOnUse" id="SvgjsPattern1017"><rect width="126.2" height="6.31" x="0" y="0" fill="#e73635"></rect><rect width="126.2" height="6.31" x="0" y="6.31" fill="rgba(0, 0, 0, 0)"></rect></pattern><clipPath id="SvgjsClipPath1016"><circle r="31.55" cx="214.6" cy="232.29"></circle></clipPath><pattern x="0" y="0" width="6" height="6" patternUnits="userSpaceOnUse" id="SvgjsPattern1019"><path d="M3 1L3 5M1 3L5 3" stroke="#d3b714" fill="none" stroke-width="1"></path></pattern><clipPath id="SvgjsClipPath1018"><circle r="87" cx="871.18" cy="344.55"></circle></clipPath><pattern x="0" y="0" width="9.22" height="9.22" patternUnits="userSpaceOnUse" id="SvgjsPattern1021"><path d="M4.61 1L4.61 8.22M1 4.61L8.22 4.61" stroke="#d3b714" fill="none" stroke-width="2.73"></path></pattern><clipPath id="SvgjsClipPath1020"><circle r="27.66" cx="1328.96" cy="536.99"></circle></clipPath><pattern x="0" y="0" width="168" height="6" patternUnits="userSpaceOnUse" id="SvgjsPattern1023"><rect width="168" height="3" x="0" y="0" fill="#d3b714"></rect><rect width="168" height="3" x="0" y="3" fill="rgba(0, 0, 0, 0)"></rect></pattern><clipPath id="SvgjsClipPath1022"><circle r="42" cx="297.96" cy="177.28"></circle></clipPath><pattern x="0" y="0" width="6" height="6" patternUnits="userSpaceOnUse" id="SvgjsPattern1025"><path d="M3 1L3 5M1 3L5 3" stroke="#d3b714" fill="none" stroke-width="1.03"></path></pattern><clipPath id="SvgjsClipPath1024"><circle r="54" cx="1228.5" cy="343.02"></circle></clipPath></defs></svg>